<svg xmlns="http://www.w3.org/2000/svg" width="1440" height="900" viewBox="0 0 1440 900" role="img" aria-label="会议室排座应用界面截图">
  <defs>
    <pattern id="grid" width="40" height="40" patternUnits="userSpaceOnUse">
      <path d="M40 0H0V40" fill="none" stroke="#e7e2d8" stroke-width="1"/>
    </pattern>
    <filter id="shadow" x="-20%" y="-20%" width="140%" height="140%">
      <feDropShadow dx="0" dy="12" stdDeviation="12" flood-color="#30291f" flood-opacity=".14"/>
    </filter>
  </defs>
  <rect width="1440" height="900" fill="#ece6da"/>
  <rect width="1440" height="70" fill="#2b2924"/>
  <rect x="18" y="14" width="42" height="42" rx="8" fill="#28766f"/>
  <rect x="29" y="26" width="20" height="16" rx="4" fill="#fffdf8"/>
  <path d="M34 21h10M34 47h10M24 32v8M54 32v8" stroke="#d99028" stroke-width="3" stroke-linecap="round"/>
  <text x="78" y="34" font-family="Arial, Microsoft YaHei, sans-serif" font-size="18" font-weight="800" fill="#fff9ed">未命名会议室</text>
  <text x="78" y="54" font-family="Arial, Microsoft YaHei, sans-serif" font-size="12" fill="#dacfb9">8个座位 · 6个已安排 · 10人名单</text>
  <g transform="translate(962 18)" font-family="Arial, Microsoft YaHei, sans-serif" font-size="14" font-weight="700">
    <rect width="76" height="36" rx="8" fill="#d99028"/>
    <text x="38" y="23" text-anchor="middle" fill="#211f1b">导出图片</text>
    <rect x="86" width="76" height="36" rx="8" fill="#403b33"/>
    <text x="124" y="23" text-anchor="middle" fill="#fff9ed">导出布局</text>
    <rect x="172" width="76" height="36" rx="8" fill="#403b33"/>
    <text x="210" y="23" text-anchor="middle" fill="#fff9ed">导入布局</text>
  </g>
  <rect x="0" y="70" width="220" height="830" fill="#faf7f1"/>
  <rect x="1110" y="70" width="330" height="830" fill="#faf7f1"/>
  <g font-family="Arial, Microsoft YaHei, sans-serif">
    <text x="18" y="108" font-size="14" font-weight="800" fill="#24211d">工具</text>
    <g transform="translate(18 126)" fill="#fffdf8" stroke="#d8d0c4">
      <rect width="86" height="66" rx="8" fill="#e7f0ed" stroke="#28766f"/>
      <rect x="98" width="86" height="66" rx="8"/>
      <rect y="78" width="86" height="66" rx="8"/>
      <rect x="98" y="78" width="86" height="66" rx="8"/>
      <rect y="156" width="86" height="66" rx="8"/>
      <rect x="98" y="156" width="86" height="66" rx="8"/>
    </g>
    <text x="18" y="388" font-size="14" font-weight="800" fill="#24211d">草稿</text>
    <rect x="18" y="406" width="184" height="36" rx="8" fill="#28766f"/>
    <text x="110" y="429" font-size="14" font-weight="700" text-anchor="middle" fill="#fffdf8">导入草稿</text>
    <rect x="18" y="452" width="184" height="36" rx="8" fill="#fffdf8" stroke="#d8d0c4"/>
    <text x="110" y="475" font-size="14" font-weight="700" text-anchor="middle" fill="#28766f">草稿自动布局</text>
  </g>
  <rect x="220" y="70" width="890" height="830" fill="#f3efe6"/>
  <rect x="244" y="94" width="842" height="52" rx="8" fill="#fffdf8" stroke="#d8d0c4"/>
  <text x="266" y="127" font-family="Arial, Microsoft YaHei, sans-serif" font-size="16" font-weight="800" fill="#24211d">未命名会议室</text>
  <g transform="translate(756 104)" font-family="Arial, Microsoft YaHei, sans-serif" font-size="12" font-weight="700" fill="#3c3730">
    <rect width="48" height="32" rx="8" fill="#f3efe6" stroke="#d8d0c4"/>
    <text x="24" y="21" text-anchor="middle">组合</text>
    <rect x="58" width="48" height="32" rx="8" fill="#f3efe6" stroke="#d8d0c4"/>
    <text x="82" y="21" text-anchor="middle">复制</text>
    <rect x="116" width="48" height="32" rx="8" fill="#f7e5df" stroke="#c9634a"/>
    <text x="140" y="21" text-anchor="middle" fill="#9b3c29">删除</text>
  </g>
  <rect x="244" y="166" width="842" height="690" rx="8" fill="#fffaf0" stroke="#d8d0c4"/>
  <rect x="244" y="166" width="842" height="690" rx="8" fill="url(#grid)" opacity=".85"/>
  <g filter="url(#shadow)" font-family="Arial, Microsoft YaHei, sans-serif" font-weight="800">
    <rect x="514" y="384" width="302" height="124" rx="12" fill="#e7d5b4" stroke="#6c5b40" stroke-width="3"/>
    <g fill="#fffdf8" stroke="#28766f" stroke-width="3">
      <rect x="540" y="302" width="74" height="52" rx="10"/>
      <rect x="626" y="302" width="74" height="52" rx="10"/>
      <rect x="712" y="302" width="74" height="52" rx="10"/>
      <rect x="540" y="538" width="74" height="52" rx="10"/>
      <rect x="626" y="538" width="74" height="52" rx="10"/>
      <rect x="712" y="538" width="74" height="52" rx="10"/>
      <rect x="416" y="420" width="74" height="52" rx="10"/>
      <rect x="840" y="420" width="74" height="52" rx="10"/>
    </g>
    <g fill="#e7dfd2">
      <rect x="550" y="338" width="54" height="12" rx="6"/>
      <rect x="636" y="338" width="54" height="12" rx="6"/>
      <rect x="722" y="338" width="54" height="12" rx="6"/>
      <rect x="550" y="542" width="54" height="12" rx="6"/>
      <rect x="636" y="542" width="54" height="12" rx="6"/>
      <rect x="722" y="542" width="54" height="12" rx="6"/>
    </g>
    <g fill="#24211d" font-size="15" text-anchor="middle" dominant-baseline="middle">
      <text x="577" y="328">张三</text>
      <text x="663" y="328">李四</text>
      <text x="749" y="328">王五</text>
      <text x="577" y="566">赵六</text>
      <text x="663" y="566">孙七</text>
      <text x="749" y="566">周八</text>
    </g>
    <rect x="936" y="246" width="92" height="92" rx="8" fill="#dbe8e6" stroke="#28766f" stroke-width="3"/>
    <circle cx="982" cy="408" r="46" fill="#f4ded7" stroke="#c9634a" stroke-width="3"/>
    <path d="M936 580h92l-46-78z" fill="#f3e7c7" stroke="#d99028" stroke-width="3"/>
  </g>
  <g font-family="Arial, Microsoft YaHei, sans-serif">
    <text x="1130" y="108" font-size="14" font-weight="800" fill="#24211d">名单</text>
    <text x="1404" y="108" font-size="12" text-anchor="end" fill="#6e675c">10人</text>
    <rect x="1130" y="126" width="290" height="92" rx="8" fill="#fffdf8" stroke="#d8d0c4"/>
    <text x="1146" y="156" font-size="13" fill="#6e675c">粘贴名单，支持空格、逗号、顿号分隔</text>
    <rect x="1130" y="238" width="88" height="32" rx="8" fill="#28766f"/>
    <text x="1174" y="259" font-size="13" font-weight="700" text-anchor="middle" fill="#fffdf8">自动排</text>
    <rect x="1130" y="292" width="290" height="46" rx="8" fill="#fffdf8" stroke="#d8d0c4"/>
    <circle cx="1154" cy="315" r="6" fill="#28766f"/>
    <text x="1172" y="320" font-size="14" font-weight="800" fill="#24211d">张三</text>
    <text x="1394" y="320" font-size="12" text-anchor="end" fill="#28766f">已排</text>
    <rect x="1130" y="350" width="290" height="46" rx="8" fill="#fffdf8" stroke="#d8d0c4"/>
    <circle cx="1154" cy="373" r="6" fill="#d99028"/>
    <text x="1172" y="378" font-size="14" font-weight="800" fill="#24211d">李四</text>
    <text x="1394" y="378" font-size="12" text-anchor="end" fill="#28766f">已排</text>
    <text x="1130" y="440" font-size="14" font-weight="800" fill="#24211d">属性</text>
    <rect x="1130" y="458" width="290" height="190" rx="8" fill="#fffdf8" stroke="#d8d0c4"/>
    <text x="1148" y="488" font-size="13" fill="#6e675c">选中座位后可调整姓名字号、颜色、尺寸和旋转</text>
    <text x="1130" y="692" font-size="14" font-weight="800" fill="#24211d">草稿</text>
    <rect x="1130" y="710" width="290" height="132" rx="8" fill="#fffdf8" stroke="#d8d0c4"/>
    <path d="M1160 794c58-80 126-80 208 0M1192 754h132" fill="none" stroke="#6e675c" stroke-width="5" stroke-linecap="round"/>
  </g>
</svg>
